<svg width="475" height="94" viewBox="0 0 475 94" fill="none" xmlns="http://www.w3.org/2000/svg">
<g clip-path="url(#clip0)">
<path d="M115.059 77.6915V12.1558H157.842V21.7823H127.029V39.7518H155.01V49.114H127.029V68.0273H157.842V77.6538H115.059V77.6915Z" fill="#43AF63"/>
<path d="M190.695 78.7862C185.937 78.7862 181.783 77.7669 178.158 75.6906C174.533 73.6143 171.701 70.7452 169.586 67.0834C167.509 63.3838 166.452 59.1934 166.452 54.4368C166.452 49.6802 167.509 45.4898 169.586 41.7902C171.663 38.0906 174.533 35.2215 178.158 33.183C181.783 31.1067 185.975 30.0874 190.695 30.0874C196.623 30.0874 201.608 31.6352 205.686 34.7308C209.727 37.8264 212.332 42.0922 213.465 47.4906H200.815C200.173 45.2256 198.965 43.489 197.114 42.2055C195.264 40.9219 193.112 40.2802 190.619 40.2802C187.296 40.2802 184.502 41.526 182.199 44.0175C179.895 46.5091 178.725 49.9822 178.725 54.399C178.725 58.8159 179.895 62.289 182.199 64.7806C184.502 67.2721 187.334 68.5179 190.619 68.5179C193.112 68.5179 195.302 67.8762 197.114 66.6304C198.965 65.3846 200.173 63.6103 200.815 61.3075H213.465C212.332 66.5549 209.764 70.7452 205.686 73.9541C201.608 77.2006 196.623 78.7862 190.695 78.7862Z" fill="#43AF63"/>
<path d="M245.449 78.7862C240.955 78.7862 236.915 77.7669 233.327 75.6906C229.74 73.6143 226.908 70.783 224.793 67.1211C222.716 63.4593 221.659 59.2312 221.659 54.4368C221.659 49.6424 222.717 45.4143 224.831 41.7525C226.946 38.0906 229.816 35.2593 233.403 33.183C236.99 31.1067 241.031 30.0874 245.524 30.0874C249.942 30.0874 253.983 31.1067 257.57 33.183C261.158 35.2593 263.99 38.0906 266.104 41.7525C268.181 45.4143 269.238 49.6424 269.238 54.4368C269.238 59.2312 268.181 63.4593 266.104 67.1211C264.027 70.783 261.158 73.6143 257.532 75.6906C253.907 77.7669 249.905 78.7862 245.449 78.7862ZM245.449 68.4047C248.583 68.4047 251.302 67.2344 253.605 64.8938C255.909 62.5533 257.079 59.0802 257.079 54.4746C257.079 49.8689 255.909 46.3958 253.605 44.0553C251.302 41.7147 248.621 40.5444 245.562 40.5444C242.39 40.5444 239.634 41.7147 237.368 44.0553C235.102 46.3958 233.969 49.8689 233.969 54.4746C233.969 59.0802 235.102 62.5533 237.368 64.8938C239.634 67.2344 242.352 68.4047 245.449 68.4047Z" fill="#43AF63"/>
<path d="M300.316 78.7862C295.936 78.7862 292.046 77.7292 288.61 75.6152C285.174 73.5011 282.455 70.5943 280.454 66.8947C278.452 63.1951 277.47 59.0425 277.47 54.3613C277.47 49.6802 278.452 45.5276 280.454 41.8658C282.455 38.2039 285.174 35.3348 288.61 33.2585C292.046 31.1822 295.936 30.1252 300.316 30.1252C303.828 30.1252 306.886 30.767 309.492 32.0882C312.098 33.4095 314.25 35.2216 315.874 37.5999V10.3059H327.844V77.6915H317.158L315.836 71.0473C314.325 73.1236 312.362 74.8979 309.907 76.4834C307.453 78.0312 304.243 78.7862 300.316 78.7862ZM302.846 68.3292C306.698 68.3292 309.87 67.0457 312.362 64.4408C314.816 61.836 316.062 58.5139 316.062 54.4746C316.062 50.4352 314.816 47.1131 312.362 44.5083C309.907 41.9035 306.735 40.62 302.846 40.62C299.032 40.62 295.898 41.9035 293.406 44.4706C290.913 47.0376 289.667 50.322 289.667 54.3991C289.667 58.4384 290.913 61.7983 293.406 64.4031C295.898 67.0079 299.032 68.3292 302.846 68.3292Z" fill="#43AF63"/>
<path d="M361.641 78.7863C356.958 78.7863 352.804 77.8048 349.179 75.804C345.554 73.8032 342.722 71.0096 340.645 67.3855C338.568 63.7614 337.549 59.571 337.549 54.8522C337.549 50.0578 338.568 45.7919 340.607 42.0168C342.647 38.2795 345.441 35.3726 349.028 33.2586C352.616 31.1823 356.845 30.1252 361.716 30.1252C366.285 30.1252 370.288 31.1068 373.8 33.1076C377.312 35.1084 380.03 37.8264 381.994 41.2995C383.958 44.7726 384.939 48.6232 384.939 52.8513C384.939 53.5309 384.939 54.2481 384.902 55.0032C384.864 55.7582 384.826 56.5509 384.751 57.3437H349.444C349.708 60.9678 350.954 63.7991 353.22 65.8754C355.485 67.9517 358.242 68.971 361.49 68.971C363.906 68.971 365.983 68.4425 367.607 67.3477C369.268 66.253 370.477 64.8184 371.307 63.0819H383.467C382.598 66.0265 381.125 68.669 379.124 71.0851C377.085 73.5011 374.593 75.3887 371.647 76.7477C368.74 78.1068 365.379 78.7863 361.641 78.7863ZM361.716 39.865C358.771 39.865 356.203 40.6955 353.937 42.3566C351.672 44.0176 350.237 46.5092 349.632 49.9068H372.742C372.554 46.8489 371.421 44.4329 369.382 42.6208C367.343 40.771 364.775 39.865 361.716 39.865Z" fill="#43AF63"/>
<path d="M404.802 77.6915L387.771 31.2578H400.308L412.09 66.3662L423.871 31.2578H436.408L419.264 77.6915H404.802Z" fill="#43AF63"/>
<path d="M450.229 45.8675C448.945 45.8675 447.925 45.5655 447.132 44.9237C446.377 44.2819 445.962 43.1871 445.962 41.6016V36.2787H443.847V33.6361H445.962L446.339 30.3518H449.133V33.6361H452.456V36.2787H449.133V41.6394C449.133 42.2434 449.247 42.6209 449.511 42.8474C449.775 43.0739 450.191 43.1871 450.833 43.1871H452.381V45.8675H450.229Z" fill="#43AF63"/>
<path d="M454.911 45.8676V33.6362H457.705L457.97 35.2973C458.347 34.6933 458.876 34.2403 459.518 33.8627C460.16 33.523 460.915 33.3342 461.783 33.3342C463.672 33.3342 465.031 34.0515 465.824 35.5238C466.277 34.8443 466.881 34.3158 467.599 33.9382C468.354 33.5607 469.147 33.3342 470.053 33.3342C471.639 33.3342 472.885 33.825 473.716 34.7688C474.585 35.7125 475 37.1093 475 38.9591V45.8676H471.828V39.2611C471.828 38.2041 471.639 37.4113 471.224 36.8451C470.808 36.2788 470.204 36.0145 469.374 36.0145C468.505 36.0145 467.825 36.3166 467.297 36.9583C466.768 37.6001 466.504 38.4684 466.504 39.5631V45.8676H463.332V39.2611C463.332 38.2041 463.143 37.4113 462.728 36.8451C462.312 36.2788 461.67 36.0145 460.839 36.0145C460.009 36.0145 459.329 36.3166 458.8 36.9583C458.272 37.6001 458.007 38.4684 458.007 39.5631V45.8676H454.911Z" fill="#43AF63"/>
<path d="M0 22.6882V68.8955L40.5179 93.9999V70.5188V46.2071L0 22.6882Z" fill="#299144"/>
<path d="M81.0735 46.2073V70.5189L40.5178 94.0001V70.5189L81.0735 46.2073Z" fill="#7BBF83"/>
<path d="M60.6825 34.2779L81.0736 22.6884L40.5179 0L0 22.6884L39.6494 46.1317L19.4471 57.5325L40.5179 70.5189L81.0736 46.2072L60.6825 34.2779Z" fill="#43AF63"/>
</g>
<defs>
<clipPath id="clip0">
<rect width="475" height="94" fill="white"/>
</clipPath>
</defs>
</svg>
